<svg xmlns="http://www.w3.org/2000/svg" version="1.1" xlink="http://www.w3.org/1999/xlink" xmlns:svgjs="http://svgjs.com/svgjs" width="300" height="101.58690397164364"><defs id="SvgjsDefs43368"/><g id="SvgjsG43369" transform="scale(0.9393669918963939)" opacity="1"><g id="SvgjsG43370" class="7gTwlEXtj" transform="translate(7.105427357601002e-15, 7.105427357601002e-15) scale(1.08144)" light-content="false" non-strokable="false" fill="#f88a30"><path d="M24 0h76v76c0 13.255-10.745 24-24 24H0V24C0 10.745 10.745 0 24 0z"/></g><g id="SvgjsG43371" class="AXjMNh4Kj-" transform="translate(19.466098419050653, 19.46661211467885) scale(0.6921146788532115)" light-content="true" non-strokable="false" fill="#ffffff"><path d="M76.786 4.057c.355.236.092.351-.13.554-.546.5-1.098.993-1.617 1.521a78.619 78.619 0 0 0-3.295 3.512c-2.424 2.773-4.737 5.638-6.994 8.548-4.43 5.71-8.582 11.673-13.266 17.18a83.526 83.526 0 0 0 13.747-7.355c5.905-3.912 11.921-8.919 14.758-15.594 1.729-4.068 1.6-7.072.549-12.424-15.283.914-24.235 14.573-28.086 27.932-.668 2.318-1.23 4.675-1.619 7.057 8.816-10.147 15.89-21.898 25.953-30.931z"/><path d="M81.566 48.527c-3.833-8.945-9.165-13.293-16.299-13.293-4.563 0-8.85 1.779-11.687 2.957-1.688.7-2.706 1.123-3.581 1.123-.876 0-1.895-.423-3.584-1.124-2.836-1.177-7.123-2.955-11.685-2.956-7.133 0-12.464 4.348-16.298 13.293-5.105 11.912-4.101 25.643 2.619 35.835 5.228 7.928 12.894 12.295 21.584 12.295.761 0 1.538-.034 2.309-.102a5.22 5.22 0 0 1 .477-.021c1.589 0 2.892.65 3.848 1.217l.728.431.728-.431c.958-.567 2.262-1.218 3.849-1.218.17 0 .325.007.487.022a26.47 26.47 0 0 0 2.299.101c8.692 0 16.358-4.366 21.586-12.294 6.723-10.191 7.726-23.922 2.62-35.835zM50 85.095S37.612 76.31 37.612 65.472c0-10.837 7.224-19.623 12.388-19.623s12.388 8.785 12.388 19.623C62.388 76.31 50 85.095 50 85.095z"/><path d="M83.253 47.59C72.752 23.088 52.975 37.265 50 37.265c-2.975 0-22.751-14.177-33.252 10.326C6.246 72.093 21.471 100.254 45.1 98.169 47.403 97.966 49.3 100 50 100c.7 0 2.597-2.034 4.901-1.831 23.628 2.085 38.853-26.076 28.352-50.579zM57.362 97.409c-.782 0-1.578-.035-2.367-.104a4.425 4.425 0 0 0-.419-.019c-1.405 0-2.59.595-3.466 1.113l-1.111.657-1.111-.658c-.874-.518-2.059-1.112-3.465-1.112-.142 0-.28.006-.41.018-.794.069-1.593.105-2.376.105-8.952 0-16.84-4.486-22.212-12.632-6.858-10.401-7.886-24.404-2.683-36.545 3.965-9.252 9.522-13.749 16.989-13.749 4.712.001 9.082 1.814 11.973 3.013 1.602.665 2.569 1.066 3.296 1.066.725 0 1.691-.401 3.291-1.065 2.893-1.201 7.264-3.015 11.976-3.015 7.468 0 13.025 4.497 16.99 13.749 5.204 12.142 4.176 26.145-2.682 36.546-5.371 8.146-13.259 12.632-22.213 12.632z"/></g><g id="SvgjsG43372" class="text" transform="translate(225.284, 76.122) scale(1)" light-content="false" fill="#3e4e50"><path d="M-94.14 -37.08L-85.26 -37.08L-85.26 -44.58L-94.14 -44.58ZM-94.08 0L-85.32 0L-85.32 -30.6L-94.08 -30.6Z M-72.18 -41.28L-72.18 0L-62.88 0L-62.88 -13.26L-55.5 -13.26C-52.14 -13.26 -49.6 -13.84 -47.88 -15C-46.16 -16.16 -45.03 -17.72 -44.49 -19.68C-43.95 -21.64 -43.68 -24.18 -43.68 -27.3C-43.68 -30.58 -43.97 -33.2 -44.55 -35.16C-45.13 -37.12 -46.26 -38.63 -47.94 -39.69C-49.62 -40.75 -52.12 -41.28 -55.44 -41.28ZM-58.68 -21L-62.88 -21L-62.88 -33.54L-58.68 -33.54C-56.92 -33.54 -55.66 -33.4 -54.9 -33.12C-54.14 -32.84 -53.64 -32.29 -53.4 -31.47C-53.16 -30.65 -53.04 -29.26 -53.04 -27.3C-53.04 -25.34 -53.16 -23.95 -53.4 -23.13C-53.64 -22.31 -54.14 -21.75 -54.9 -21.45C-55.66 -21.15 -56.92 -21 -58.68 -21Z M-8.82 -12.9L-8.82 -15.24C-8.82 -19.68 -9.02 -22.92 -9.42 -24.96C-9.82 -27 -10.86 -28.53 -12.54 -29.55C-14.22 -30.57 -16.98 -31.08 -20.82 -31.08C-24.7 -31.08 -27.54 -30.54 -29.34 -29.46C-31.14 -28.38 -32.3 -26.78 -32.82 -24.66C-33.34 -22.54 -33.6 -19.4 -33.6 -15.24C-33.6 -11 -33.34 -7.84 -32.82 -5.76C-32.3 -3.68 -31.09 -2.12 -29.19 -1.08C-27.29 -0.04 -24.28 0.48 -20.16 0.48C-18.32 0.48 -16.43 0.39 -14.49 0.21C-12.55 0.03 -10.98 -0.2 -9.78 -0.48L-9.78 -6.84C-13.62 -6.52 -16.4 -6.36 -18.12 -6.36C-20.4 -6.36 -21.99 -6.5 -22.89 -6.78C-23.79 -7.06 -24.36 -7.61 -24.6 -8.43C-24.84 -9.25 -24.96 -10.74 -24.96 -12.9ZM-23.61 -24C-23.07 -24.28 -22.18 -24.42 -20.94 -24.42C-19.78 -24.42 -18.94 -24.29 -18.42 -24.03C-17.9 -23.77 -17.54 -23.21 -17.34 -22.35C-17.14 -21.49 -17.04 -20.04 -17.04 -18L-24.96 -18C-24.96 -20 -24.87 -21.43 -24.69 -22.29C-24.51 -23.15 -24.15 -23.72 -23.61 -24Z M3.45 -1.71C4.71 -0.25 6.72 0.48 9.48 0.48C11.24 0.48 12.79 0.19 14.13 -0.39C15.47 -0.97 16.54 -2.04 17.34 -3.6L17.82 -3.6L18.06 0L26.34 0L26.34 -18.6C26.34 -21.84 26.05 -24.31 25.47 -26.01C24.89 -27.71 23.71 -28.98 21.93 -29.82C20.15 -30.66 17.46 -31.08 13.86 -31.08C10.18 -31.08 6.64 -30.76 3.24 -30.12L3.24 -23.76C5.64 -24.04 8.26 -24.18 11.1 -24.18C13.18 -24.18 14.64 -24.09 15.48 -23.91C16.32 -23.73 16.89 -23.31 17.19 -22.65C17.49 -21.99 17.64 -20.84 17.64 -19.2L17.64 -17.94C14.52 -18.1 12.1 -18.18 10.38 -18.18C8.06 -18.18 6.27 -17.88 5.01 -17.28C3.75 -16.68 2.86 -15.7 2.34 -14.34C1.82 -12.98 1.56 -11.12 1.56 -8.76C1.56 -5.52 2.19 -3.17 3.45 -1.71ZM15.69 -6.6C15.15 -6.4 14.42 -6.3 13.5 -6.3C12.42 -6.3 11.63 -6.39 11.13 -6.57C10.63 -6.75 10.3 -7.06 10.14 -7.5C9.98 -7.94 9.9 -8.62 9.9 -9.54C9.9 -10.58 9.98 -11.35 10.14 -11.85C10.3 -12.35 10.59 -12.68 11.01 -12.84C11.43 -13 12.1 -13.08 13.02 -13.08L17.64 -13.08L17.64 -11.76C17.64 -9.84 17.42 -8.48 16.98 -7.68C16.66 -7.16 16.23 -6.8 15.69 -6.6Z M49.74 0.48C52.66 0.48 55.36 0.16 57.84 -0.48L57.84 -6.84C56.12 -6.56 54.22 -6.42 52.14 -6.42C50.42 -6.42 49.21 -6.62 48.51 -7.02C47.81 -7.42 47.34 -8.2 47.1 -9.36C46.86 -10.52 46.74 -12.5 46.74 -15.3C46.74 -18.06 46.86 -20.02 47.1 -21.18C47.34 -22.34 47.82 -23.13 48.54 -23.55C49.26 -23.97 50.46 -24.18 52.14 -24.18C54.02 -24.18 55.86 -24.04 57.66 -23.76L57.66 -30.18C55.34 -30.78 52.68 -31.08 49.68 -31.08C46.24 -31.08 43.69 -30.51 42.03 -29.37C40.37 -28.23 39.28 -26.58 38.76 -24.42C38.24 -22.26 37.98 -19.22 37.98 -15.3C37.98 -11.34 38.22 -8.29 38.7 -6.15C39.18 -4.01 40.26 -2.37 41.94 -1.23C43.62 -0.09 46.22 0.48 49.74 0.48Z M85.38 -16.38L85.38 0L94.08 0L94.08 -19.68C94.08 -22.44 93.88 -24.62 93.48 -26.22C93.08 -27.82 92.3 -29.03 91.14 -29.85C89.98 -30.67 88.24 -31.08 85.92 -31.08C84.12 -31.08 82.58 -30.77 81.3 -30.15C80.02 -29.53 79.02 -28.5 78.3 -27.06L77.82 -27.06L77.82 -44.58L69.12 -44.58L69.12 0L77.82 0L77.82 -15.84C77.82 -18.16 77.9 -19.83 78.06 -20.85C78.22 -21.87 78.57 -22.59 79.11 -23.01C79.65 -23.43 80.54 -23.64 81.78 -23.64C82.98 -23.64 83.81 -23.51 84.27 -23.25C84.73 -22.99 85.03 -22.39 85.17 -21.45C85.31 -20.51 85.38 -18.82 85.38 -16.38Z"/></g></g></svg>